<svg width="20" height="20" viewBox="0 0 20 20" fill="none" xmlns="http://www.w3.org/2000/svg">
<path d="M6 14.5349L10.413 14.5199L20.045 4.97988C20.423 4.60188 20.631 4.09988 20.631 3.56588C20.631 3.03188 20.423 2.52988 20.045 2.15188L18.459 0.565875C17.703 -0.190125 16.384 -0.186125 15.634 0.562875L6 10.1049V14.5349V14.5349ZM17.045 1.97988L18.634 3.56288L17.037 5.14488L15.451 3.55988L17.045 1.97988ZM8 10.9389L14.03 4.96588L15.616 6.55188L9.587 12.5229L8 12.5279V10.9389Z" fill="#94ADCF"/>
<path d="M2.22222 20H17.7778C19.0033 20 20 19.0033 20 17.7778V8.14667L17.7778 10.3689V17.7778H5.73111C5.70222 17.7778 5.67222 17.7889 5.64333 17.7889C5.60667 17.7889 5.57 17.7789 5.53222 17.7778H2.22222V2.22222H9.83L12.0522 0H2.22222C0.996667 0 0 0.996667 0 2.22222V17.7778C0 19.0033 0.996667 20 2.22222 20Z" fill="#94ADCF"/>
<path d="M6 14.5349L10.413 14.5199L20.045 4.97988C20.423 4.60188 20.631 4.09988 20.631 3.56588C20.631 3.03188 20.423 2.52988 20.045 2.15188L18.459 0.565875C17.703 -0.190125 16.384 -0.186125 15.634 0.562875L6 10.1049V14.5349V14.5349ZM17.045 1.97988L18.634 3.56288L17.037 5.14488L15.451 3.55988L17.045 1.97988ZM8 10.9389L14.03 4.96588L15.616 6.55188L9.587 12.5229L8 12.5279V10.9389Z" fill="#94ADCF"/>
<path d="M2.22222 20H17.7778C19.0033 20 20 19.0033 20 17.7778V8.14667L17.7778 10.3689V17.7778H5.73111C5.70222 17.7778 5.67222 17.7889 5.64333 17.7889C5.60667 17.7889 5.57 17.7789 5.53222 17.7778H2.22222V2.22222H9.83L12.0522 0H2.22222C0.996667 0 0 0.996667 0 2.22222V17.7778C0 19.0033 0.996667 20 2.22222 20Z" fill="#94ADCF"/>
</svg>
