<svg width="20" height="20" viewBox="0 0 20 20" fill="none" xmlns="http://www.w3.org/2000/svg">
<path d="M19.2 0H0.8C0.3575 0 0 0.3575 0 0.8V19.2C0 19.6425 0.3575 20 0.8 20H19.2C19.6425 20 20 19.6425 20 19.2V0.8C20 0.3575 19.6425 0 19.2 0ZM18.2 18.2H1.8V1.8H18.2V18.2Z" fill="#4ECB71"/>
<path d="M8.23428 13.6659C8.30977 13.7693 8.40928 13.8535 8.52457 13.9116C8.63986 13.9697 8.76761 14 8.89722 14C9.02684 14 9.15459 13.9697 9.26988 13.9116C9.38517 13.8535 9.48468 13.7693 9.56017 13.6659L14.9612 6.31952C15.0587 6.18618 14.9612 6 14.7945 6H13.5917C13.3301 6 13.0814 6.12328 12.9275 6.33461L8.89851 11.8192L7.07252 9.33355C6.91864 9.12473 6.67244 8.99894 6.40829 8.99894H5.20549C5.03879 8.99894 4.94134 9.18511 5.03879 9.31846L8.23428 13.6659V13.6659Z" fill="#4ECB71"/>
</svg>
